<svg height="20" viewBox="0 0 18 20" width="18" xmlns="http://www.w3.org/2000/svg"><g style="stroke:#000;stroke-width:2;fill:none;fill-rule:evenodd;stroke-linecap:round;stroke-linejoin:round" transform="translate(-3 -2)"><path d="m5.77777778 21c-.98183956 0-1.77777778-.9949228-1.77777778-2.2222222v-13.55555558c0-1.22729944.79593822-2.22222222 1.77777778-2.22222222h2.44444444c.98183956 0 1.77777778.99492278 1.77777778 2.22222222v13.55555558c0 1.2272994-.79593822 2.2222222-1.77777778 2.2222222z"/><path d="m14 5.22222222c0-1.22729944.7959382-2.22222222 1.7777778-2.22222222h2.4444444c.9818396 0 1.7777778.99492278 1.7777778 2.22222222v13.55555558c0 1.2272994-.7959382 2.2222222-1.7777778 2.2222222h-2.4444444c-.9818396 0-1.7777778-.9949228-1.7777778-2.2222222z"/></g></svg>